<?xml version="1.0" encoding="utf-8"?>
<!-- Generator: Adobe Illustrator 19.1.0, SVG Export Plug-In . SVG Version: 6.00 Build 0)  -->
<svg version="1.1" id="Layer_1" xmlns="http://www.w3.org/2000/svg" xmlns:xlink="http://www.w3.org/1999/xlink" x="0px" y="0px"
	 viewBox="0 0 612 792" enable-background="new 0 0 612 792" xml:space="preserve">
<g>
	<path fill="#68929D" d="M565.5,736.2"/>
	<path fill="#68929D" d="M570.4,741"/>
	<path fill="#68929D" d="M604.8,777h-383c-1-8.1-2.4-16.1-3.1-24.2c-1.7-21.4-4.6-42.7-5.2-64.1c-1.1-35.9-2.7-71.8,4.7-107.3
		c3.4-16.3,7.2-32.4,9.3-48.9c3.6-28.4,5.3-57,5.9-85.6c0.3-14.7,0.5-29.3,1.2-43.9c0.4-7.8,0.8-15.6,3.1-23.2
		c2.3-7.6,4.6-15.2,6.5-22.9c4.4-18.3,9.6-36.4,13-54.8c2.2-11.9,4.2-23.9,4.1-36.1c0-3.2-0.4-6.3-1.7-9.3c-2.1-4.8-3.9-5.2-7.6-1.5
		c-5.3,5.3-11.1,6.3-17.7,2.8c-1.8-0.9-3.7-1.7-5.8-1.2c-6.3,1.6-12.8,2.5-18.7,5.1c-15.4,6.7-31.7,8.3-47.9,10.7
		c-8.6,1.3-14.9,7-22.5,10.1c-3.1,1.3-1.3,4.2-2.4,6c-0.4,0.7-1.1,1.3-1.7,1.7c-2.4,1.6-4.2,3.8-6,6c-2.7,3.2-6.1,5.5-10.3,6.6
		c-9,2.4-17.9-0.1-26.7-1.1c-3-0.3-6-2.3-5.1-6.6c0.6-2.9-1.6-2.7-3.5-2.8c-5.2-0.2-9-2.6-11.6-7.2c-5.6-9.8-3.1-26.1,5.3-34
		c1.5-1.4,3.3-2.3,5-1.4c4.6,2.4,6.3-0.7,7.2-3.9c1.2-4.7,4.1-7.3,8.3-9.1c1.8-0.8,3.8-1.8,5-3.2c9.7-13,23.3-22.2,32.9-35.3
		c7.1-9.8,14.9-19.1,22.2-28.8c1.4-1.9,2.1-3.9,2.3-6.4c1.4-12.2,6.5-21.6,19.2-25.7c5.8-1.9,10.7-5.4,14.3-10.9
		c3.3-5,6.6-10.2,12-13.8c7.5-4.9,9.1-17.5,2.7-27.8c-1.9-3.1-1.4-5.6,0.5-8.3c5.9-7.8,20.5-9.8,29-2.3c2.2,2,2.7,4.6,1.7,6.8
		c-2.6,5.4-1.8,11.1-1.8,16.7c-0.1,6.7,1,7.7,7.5,6.5c8.9-1.6,17.8-2.2,26.8-1.9c4,0.2,8.2,1.4,11.1-3c0.8-1.3,2.8-1.1,4.2-0.9
		c3.8,0.5,7.6,0.5,11,2.8c1.9,1.3,3.9,1.5,5.6-0.9c7.8-11.2,18.3-19.6,28.7-28.2c4.5-3.7,9.2-5.5,14.9-5.7c3.3-0.1,4.7,1.2,4.9,4.2
		c1.1,15,1.5,30-4,44.4c-2.7,7.1-5.6,14.1-8.4,21.1c-0.2,0.3-0.6,0.9-0.9,1.2c-3.4,3.2-5.1,7.6-7.4,11.5c-0.6,1.1-0.8,2.9-0.4,4
		c1.9,5,3.8,9.9,5.4,15c4.4,13.4,8.6,26.8,11.5,40.7c1.4,6.9,1.6,13.9,3.3,20.6c3.2,12.4,2.2,0.5,5.5,37.8L354.8,464l0.7,70.7
		c0,0-3,29.3,4,55.3c4.8,17.8,14.5,33.2,18,40c4.2,8.1,19,25,32.5,35c12.1,8.9,40.5,18.3,49.6,21.1l49.1,6.6
		c13.5,1.8,26.4,3.1,34.6,6.3l24.9,11.7l22.8,17l9.2,24.8L604.8,777z"/>
	<path fill="#68929D" d="M305.9,411.1"/>
	<path fill="#68929D" d="M309.1,362"/>
	<path fill="#68929D" d="M310.9,348.1"/>
	<path fill="#FDFEFE" d="M309.1,362"/>
	<path fill="#FDFEFE" d="M307.9,386"/>
	<path fill="#FDFEFE" d="M312,345.9"/>
</g>
<g>
	<path d="M20,661.2c0.8-1.1,2-2.1,2.4-3.3c5.2-16.6,20.5-28.2,37.8-28.3c13.5-0.1,27,0.1,40.5-0.1c4.4-0.1,6.1,1.4,5.6,5.8
		c-0.3,3.1-0.2,6.3,0,9.5c0.3,3.6-1.4,4.6-4.7,4.6c-12.8-0.1-25.7-0.1-38.5,0c-11.9,0-21.2,9.4-21.2,21.2
		c-0.1,11.9,9.1,21.6,20.8,21.8c6.8,0.1,13.7,0,20.5,0c23.3,0.1,41.9,17.9,42.2,40.5c0.2,22.4-18.1,41.5-40.9,42
		c-17.2,0.4-34.3,0-51.5,0.1c-3.3,0-5-0.9-4.7-4.6c0.3-3.5,0.3-7,0-10.5c-0.3-4.1,1.5-5.2,5.3-5.2c15.3,0.1,30.7,0.2,46,0
		c9.1-0.1,16.6-3.5,21.1-11.8c7.4-13.6-2.5-30.2-18.4-30.8c-6.3-0.2-12.7,0-19-0.1c-19.7,0-33.9-10-40.7-28.6
		c-0.5-1.3-1.6-2.3-2.5-3.5C20,673.9,20,667.6,20,661.2z"/>
	<path d="M362,775.2c-10.2,0-20.3-0.1-30.5-0.1c-2.5,0-4.6,0-4.6-3.6c0.1-18.5,0-37,0-56.2c2.7,0,5.1,0.1,7.5,0
		c2.8-0.2,4.2,1.1,4.1,3.7c-0.1,13.3-0.3,26.6-0.7,39.9c-0.1,4.1,1.3,5.4,5.3,5.2c6.2-0.3,12.5,0.1,18.8,0.2
		C362,767.9,362,771.6,362,775.2z"/>
	<path d="M160.5,617.7c0,18.8-0.1,37.7,0.1,56.5c0,4-0.8,5.9-5.2,5.5c-3.6-0.3-7.3-0.2-11,0c-3.7,0.2-4.7-1.3-4.7-5
		c0.1-37.3,0.1-74.6,0.1-112c0-8.3,0-8.3-8.3-8.3c-8,0-16-0.1-24,0c-3.1,0-4.6-1-4.4-4.3c0.2-3.3,0.3-6.7,0-10
		c-0.5-4.5,0.9-6.1,5.7-6c27.3,0.2,54.7,0.2,82,0c4.8,0,6.3,1.4,6.2,6.3c-0.3,14-0.1,14-13.9,14c-5.7,0-11.3,0.2-17-0.1
		c-4.2-0.3-5.5,1.3-5.5,5.4C160.5,579,160.5,598.3,160.5,617.7z"/>
	<path d="M261.6,724.1c-3.2,3-6,5.6-9,8.4c-7.7-8.5-16.2-11.9-26.1-4.7c-7.1,5.2-10.2,16.8-7.1,24.8c3.5,9.3,10.4,13.9,19.4,13.2
		c7.2-0.6,13.5-5.7,15.4-13.5c-4.5,0-8.7-0.2-12.9,0.1c-4.3,0.3-5.3-1.5-5.3-5.5c0-4.1,1.2-5.6,5.5-5.4c7.1,0.3,14.3,0.1,21.5-0.2
		c4.1-0.2,5.3,1.4,5.1,5.3c-0.8,12.8-6.5,22.5-18.1,28c-11.6,5.4-23,3.9-32.7-4.5c-10.1-8.7-13.5-20.1-10-33
		c5.9-21.8,27.5-31.1,46-19.9C256.2,719,258.6,721.6,261.6,724.1z"/>
	<path d="M277.8,679c-3.7,0-6.8,0-9.3,0c-1.7-4.3-2.9-8.4-5-11.9c-2.9-4.9-11.5-7.2-16.4-4.7c-1,0.5-1.7,2.3-1.8,3.6
		c-0.2,3.1-0.3,6.3,0,9.5c0.4,4.6-2.8,4.2-5.6,4.1c-2.7-0.1-6.3,1.3-6.2-3.9c0.1-17.5,0-35,0.2-52.4c0-1.2,1.8-3.4,2.8-3.4
		c8.4-0.1,16.9-0.4,25.3,0.5c15.6,1.6,20.9,21.5,12.2,32c-3.5,4.3-4.1,7.3-0.1,11.2C278.3,667.7,278.4,673.1,277.8,679z
		 M245.3,641.2c0,10.9,0.5,11.4,11.3,9.5c0.3-0.1,0.7-0.1,1-0.1c5.7-1,8.5-4.1,8.6-9.7c0.1-5.1-3.2-9.1-8.3-10
		C246.1,628.7,245.3,629.4,245.3,641.2z"/>
	<path d="M312.6,715.7c0,3.6,0,6.7,0,10.3c-7.2,0-14.1,0-21.8,0c0,3.7-0.3,7.1,0.2,10.2c0.2,1.1,2.5,2.6,3.9,2.6
		c4.1,0.2,8.3-0.3,12.4-0.4c4.3-0.1,4.5,2.8,4.6,6.1c0.1,3.3-0.5,5.5-4.4,5.5c-5.3-0.1-10.6,0-16,0c-0.3,1-0.6,1.6-0.6,2.2
		c0.1,3.6-0.9,8,0.8,10.6c1.1,1.6,6.2,0.6,9.5,0.7c2,0.1,4,0,6,0c5.8,0,8.6,4.2,6.2,9.5c-0.4,1-2.2,1.9-3.4,1.9
		c-9.1,0.2-18.3,0.2-27.4-0.1c-1.2,0-3.3-2.2-3.3-3.4c-0.2-18.5-0.1-36.9-0.1-55.8C290.3,715.7,301.3,715.7,312.6,715.7z"/>
	<path d="M163.3,745.2c0-8.7,0.1-17.3-0.1-26c-0.1-3,0.9-4.2,4-4.2c8.8,0.1,17.7,0.1,26.5,0c3.6,0,4.1,1.9,3.9,4.8
		c-0.2,2.7,0.7,6-3.9,6c-4.7,0-9.3,0.1-14,0c-5.3-0.2-4.8,3.4-4.8,6.8c0,3.5-0.3,6.9,4.9,6.7c4-0.2,8,0.1,12-0.1
		c4.3-0.2,4.2,2.7,4.3,5.7c0.1,3-0.1,5.3-4.1,5.1c-4.3-0.2-8.7,0-13,0c-2.9-0.1-4,1.2-4.1,4.2c-0.4,10.2-0.5,10.2,9.9,10.2
		c2.3,0,4.7,0,7,0c5.9,0,8.3,3.3,6.2,8.8c-0.3,0.9-2,1.8-3,1.8c-9.5,0.1-19,0-28.5,0.1c-2.8,0-3.2-1.5-3.2-3.8
		C163.4,762.6,163.3,753.9,163.3,745.2z"/>
	<path d="M311.4,617.8c8.9,21.1,17.3,40.9,26,61.4c-3.7,0-6.8,0.3-9.9-0.2c-1.3-0.2-2.9-2-3.3-3.4c-1.5-4.7-3.9-7.4-9.3-6.5
		c-1.6,0.3-3.4,0.3-5,0c-6.2-1.1-10.2,1.1-11.9,7.4c-0.3,1.1-2.3,2.3-3.6,2.5c-2.8,0.4-5.6,0.1-9.2,0.1
		C294,658.6,302.5,638.6,311.4,617.8z M311.2,660.4c2.2-1.8,4.9-3.4,4.7-3.8c-1.2-3-3.1-5.7-4.7-8.6c-1.5,2.8-3.2,5.5-4.2,8.4
		C306.8,657,309.2,658.6,311.2,660.4z"/>
	<path d="M223.9,678.6c-8.2,2.4-10.6,1.6-13.9-5.3c-1.3-2.8-3.1-4.1-6.2-3.8c-2,0.2-4,0.2-6,0c-6.2-0.7-10.3,0.6-12.9,7.5
		c-1.9,5.2-7.8,1.9-12.9,2.5c3.4-8.1,6.3-15.2,9.3-22.3c4.8-11.3,9.7-22.6,14.6-33.8c0.5-1.1,1.6-1.9,2.4-2.9c0.8,0.9,2,1.7,2.5,2.8
		c7.5,17.2,14.8,34.4,22.2,51.7C223.4,676.1,223.6,677.4,223.9,678.6z M198.6,661.1c2.1-2,4.9-3.7,4.6-4.5
		c-1.2-3.5-3.2-6.8-4.9-10.2c-1.7,3.4-3.6,6.8-4.8,10.3C193.2,657.5,196.2,659.1,198.6,661.1z"/>
	<path d="M147.3,745.6c0,8.3-0.2,16.6,0.1,24.9c0.2,5.2-3.1,4.4-6.2,4.5c-3.2,0.1-5.7,0.1-5.6-4.6c0.3-17,0.3-33.9,0-50.9
		c-0.1-4.7,2.4-4.7,5.6-4.6c3.2,0.1,6.4-0.6,6.2,4.6C147.1,728.3,147.3,737,147.3,745.6z"/>
	<path fill="#FFFFFF" d="M311.2,660.4"/>
	<path fill="#FFFFFF" d="M311.2,648"/>
	<path fill="#FFFFFF" d="M193.5,656.8c1.2-3.6,3.1-6.9,4.8-10.3"/>
</g>
</svg>
