<?xml version="1.0" encoding="utf-8"?>
<!-- Generator: Adobe Illustrator 19.1.0, SVG Export Plug-In . SVG Version: 6.00 Build 0)  -->
<svg version="1.1" id="Layer_1" xmlns="http://www.w3.org/2000/svg" xmlns:xlink="http://www.w3.org/1999/xlink" x="0px" y="0px"
	 viewBox="0 0 941.5 759.2" enable-background="new 0 0 941.5 759.2" xml:space="preserve">
<g>
	<path fill="#68929D" d="M899.5,714.8"/>
	<path fill="#68929D" d="M904.8,720"/>
	<path fill="#68929D" d="M941.5,758.3H532.9c-1.1-8.6-2.6-17.2-3.3-25.9c-1.8-22.8-4.9-45.5-5.6-68.4c-1.2-38.3-2.8-76.6,5-114.5
		c3.6-17.3,7.7-34.6,9.9-52.2c3.8-30.3,5.7-60.8,6.3-91.3c0.3-15.6,0.5-31.3,1.3-46.9c0.4-8.3,0.8-16.7,3.3-24.8
		c2.5-8.1,4.9-16.2,6.9-24.4c4.7-19.5,10.2-38.8,13.9-58.5c2.4-12.7,4.5-25.5,4.3-38.5c0-3.4-0.4-6.8-1.8-9.9
		c-2.3-5.1-4.1-5.6-8.1-1.6c-5.6,5.6-11.8,6.7-18.9,3c-1.9-1-4-1.8-6.1-1.3c-6.7,1.7-13.7,2.7-19.9,5.4
		c-16.4,7.1-33.9,8.9-51.2,11.4c-9.2,1.4-15.9,7.4-24,10.7c-3.3,1.3-1.4,4.4-2.6,6.4c-0.4,0.7-1.1,1.4-1.9,1.8
		c-2.5,1.7-4.5,4-6.4,6.4c-2.9,3.5-6.5,5.9-11,7.1c-9.6,2.5-19.1-0.1-28.5-1.1c-3.2-0.4-6.4-2.5-5.4-7.1c0.6-3.1-1.7-2.8-3.7-2.9
		c-5.5-0.3-9.6-2.7-12.4-7.7c-6-10.5-3.4-27.8,5.7-36.3c1.6-1.5,3.5-2.5,5.3-1.5c4.9,2.5,6.7-0.7,7.6-4.2c1.3-5,4.4-7.8,8.9-9.8
		c1.9-0.8,4.1-1.9,5.3-3.5c10.4-13.8,24.9-23.6,35.2-37.7c7.6-10.4,15.9-20.4,23.7-30.7c1.5-2,2.2-4.2,2.5-6.8
		c1.5-13,7-23.1,20.5-27.4c6.2-2,11.4-5.8,15.3-11.7c3.5-5.4,7-10.9,12.8-14.7c8-5.2,9.7-18.7,2.9-29.6c-2.1-3.3-1.5-6,0.6-8.8
		c6.2-8.3,21.9-10.5,31-2.4c2.4,2.1,2.9,5,1.8,7.3c-2.7,5.8-1.9,11.8-2,17.8c-0.1,7.2,1.1,8.2,8,7c9.5-1.7,19-2.4,28.6-2
		c4.3,0.2,8.8,1.5,11.8-3.2c0.9-1.4,2.9-1.2,4.5-1c4,0.5,8.1,0.6,11.7,3c2.1,1.4,4.1,1.6,5.9-0.9c8.4-11.9,19.5-20.9,30.7-30.1
		c4.9-4,9.8-5.9,15.9-6.1c3.5-0.1,5,1.3,5.2,4.4c1.1,16,1.6,32-4.2,47.3c-2.9,7.6-6,15-9,22.5c-0.3,0.4-0.7,0.9-0.9,1.3
		c-3.7,3.4-5.4,8.1-7.9,12.2c-0.7,1.1-0.9,3-0.4,4.3c2,5.3,4,10.6,5.8,16c4.7,14.3,9.2,28.6,12.2,43.4c1.5,7.3,1.7,14.8,3.5,22
		c3.4,13.3,2.3,0.6,5.9,40.3l-2.8,210.5l0.7,75.4c0,0-3.2,31.3,4.3,59c5.1,19,15.4,35.4,19.2,42.7c4.5,8.6,20.2,26.7,34.7,37.3
		c12.9,9.5,43.3,19.5,53,22.5l52.4,7.1c14.4,1.9,28.1,3.4,36.9,6.7l26.6,12.5l24.3,18.1l9.9,26.4L941.5,758.3z"/>
	<path fill="#68929D" d="M622.6,367.9"/>
	<path fill="#68929D" d="M626,315.5"/>
	<path fill="#68929D" d="M627.9,300.6"/>
	<path fill="#FDFEFE" d="M626,315.5"/>
	<path fill="#FDFEFE" d="M624.7,341.2"/>
	<path fill="#FDFEFE" d="M629.1,298.4"/>
</g>
<g>
	<path d="M0,519.5c1.7-2.2,4.2-4.2,5-6.7c10.7-34.1,42.2-57.9,77.6-58.1c27.8-0.2,55.5,0.3,83.3-0.2c9-0.2,12.5,2.8,11.6,11.8
		c-0.7,6.4-0.5,13,0,19.5c0.6,7.4-2.8,9.5-9.7,9.5c-26.4-0.2-52.8-0.1-79.2,0c-24.4,0.1-43.5,19.3-43.7,43.7
		c-0.1,24.4,18.7,44.4,42.7,44.8c14,0.3,28.1,0,42.2,0.1c47.9,0.1,86.2,36.9,86.7,83.2c0.5,46.1-37.2,85.4-84.1,86.4
		c-35.3,0.8-70.6,0.1-105.9,0.3c-6.8,0-10.2-1.9-9.6-9.4c0.6-7.2,0.6-14.4,0-21.6C16.2,714.3,20,712,27.7,712
		c31.5,0.2,63.1,0.3,94.6,0c18.7-0.2,34.2-7.3,43.5-24.3c15.3-28-5.2-62.2-37.9-63.3c-13-0.4-26-0.1-39.1-0.1
		c-40.5,0-69.7-20.6-83.7-58.7c-1-2.6-3.4-4.7-5.1-7.1C0,545.5,0,532.5,0,519.5z"/>
	<path d="M703.3,753.9c-20.9-0.1-41.8-0.3-62.7-0.3c-5.2,0-9.4-0.1-9.4-7.3c0.2-38,0.1-76,0.1-115.6c5.5,0,10.5,0.3,15.5-0.1
		c5.7-0.4,8.6,2.3,8.5,7.6c-0.3,27.3-0.6,54.7-1.5,82c-0.3,8.4,2.6,11.1,10.8,10.7c12.8-0.6,25.7,0.2,38.6,0.4
		C703.3,738.8,703.3,746.4,703.3,753.9z"/>
	<path d="M288.8,429.9c0,38.7-0.2,77.4,0.2,116.2c0.1,8.3-1.7,12-10.6,11.3c-7.5-0.7-15.1-0.5-22.6-0.1c-7.7,0.4-9.8-2.7-9.7-10.3
		c0.3-76.8,0.2-153.5,0.2-230.3c0-17,0-17-17.1-17c-16.4,0-32.9-0.2-49.3,0.1c-6.5,0.1-9.5-2-9.1-8.9c0.4-6.8,0.7-13.8,0-20.5
		c-1-9.3,1.9-12.5,11.7-12.4c56.2,0.4,112.4,0.4,168.6,0c9.9-0.1,12.9,2.9,12.7,12.9c-0.6,28.8-0.2,28.8-28.6,28.8
		c-11.7,0-23.3,0.5-34.9-0.2c-8.7-0.5-11.4,2.7-11.3,11.1C289,350.4,288.8,390.2,288.8,429.9z"/>
	<path d="M496.8,648.9c-6.7,6.2-12.3,11.5-18.5,17.3c-15.8-17.5-33.4-24.4-53.7-9.6c-14.6,10.6-21,34.5-14.7,51
		c7.3,19.1,21.3,28.6,40,27.2c14.7-1.1,27.8-11.7,31.7-27.8c-9.2,0-17.9-0.5-26.5,0.1c-8.9,0.7-10.9-3-10.8-11.3
		c0.1-8.4,2.6-11.5,11.3-11.2c14.7,0.5,29.5,0.3,44.1-0.4c8.4-0.4,10.9,3,10.4,10.8c-1.6,26.3-13.4,46.4-37.2,57.5
		c-23.8,11.2-47.2,8-67.2-9.2c-20.8-17.9-27.7-41.3-20.5-67.8c12.2-44.9,56.6-64,94.6-41C485.7,638.2,490.6,643.6,496.8,648.9z"/>
	<path d="M530.1,556.1c-7.5,0-14,0-19.1,0c-3.6-8.7-6-17.2-10.3-24.5c-5.9-10.1-23.5-14.8-33.6-9.7c-2,1-3.4,4.8-3.6,7.4
		c-0.5,6.5-0.5,13,0,19.5c0.8,9.6-5.7,8.6-11.4,8.3c-5.6-0.2-12.9,2.7-12.8-8c0.3-35.9,0-71.9,0.4-107.8c0-2.5,3.8-7,5.8-7
		c17.4-0.2,34.9-0.7,52.1,1c32,3.2,42.9,44.2,25,65.9c-7.3,8.8-8.4,14.9-0.2,23C531.1,532.8,531.4,543.9,530.1,556.1z M463.2,478.2
		c0,22.5,1,23.4,23.3,19.6c0.7-0.1,1.4-0.2,2-0.3c11.8-2,17.5-8.4,17.6-19.9c0.1-10.5-6.7-18.7-17-20.6
		C465,452.6,463.3,454,463.2,478.2z"/>
	<path d="M601.7,631.6c0,7.4,0,13.8,0,21.2c-14.8,0-29.1,0-44.8,0c0,7.7-0.7,14.5,0.4,21c0.4,2.3,5.2,5.3,8.1,5.4
		c8.5,0.4,17-0.5,25.5-0.7c8.9-0.2,9.2,5.8,9.4,12.5c0.2,6.8-0.9,11.4-9.1,11.2c-10.9-0.2-21.8-0.1-32.9-0.1c-0.6,2-1.3,3.2-1.3,4.5
		c0.2,7.5-1.8,16.5,1.7,21.9c2.2,3.3,12.8,1.2,19.6,1.4c4.1,0.1,8.2,0,12.3,0c12,0,17.7,8.5,12.7,19.6c-0.9,2-4.5,4-6.9,4
		c-18.8,0.3-37.6,0.4-56.4-0.1c-2.5-0.1-6.9-4.5-6.9-7c-0.4-38-0.3-75.9-0.3-114.8C555.9,631.6,578.5,631.6,601.7,631.6z"/>
	<path d="M294.7,692.2c0-17.8,0.2-35.6-0.1-53.5c-0.1-6.2,1.9-8.6,8.2-8.5c18.2,0.2,36.3,0.3,54.5,0c7.4-0.1,8.4,3.9,8,9.9
		c-0.4,5.7,1.3,12.4-8,12.3c-9.6-0.1-19.2,0.3-28.8-0.1c-10.8-0.4-9.8,7-9.9,13.9c-0.1,7.1-0.5,14.2,10.1,13.7
		c8.2-0.4,16.5,0.2,24.7-0.2c8.9-0.3,8.6,5.5,8.7,11.6c0.2,6.1-0.2,10.9-8.4,10.5c-8.9-0.4-17.8,0.1-26.7-0.1
		c-6.1-0.1-8.3,2.4-8.5,8.6c-0.7,21-0.9,21,20.3,21c4.8,0,9.6,0,14.4,0c12.1,0,17.1,6.8,12.7,18.1c-0.7,1.8-4,3.7-6.1,3.7
		c-19.5,0.3-39.1,0.1-58.6,0.2c-5.7,0-6.6-3.1-6.6-7.9C294.8,727.9,294.7,710,294.7,692.2z"/>
	<path d="M599.2,430.2c18.4,43.4,35.7,84.2,53.5,126.2c-7.5,0-14,0.7-20.3-0.3c-2.7-0.4-5.9-4.1-6.8-6.9c-3-9.7-8-15.3-19-13.4
		c-3.3,0.6-6.9,0.6-10.2,0c-12.8-2.2-21,2.2-24.6,15.2c-0.6,2.3-4.6,4.8-7.4,5.2c-5.7,0.8-11.5,0.2-19,0.2
		C563.5,514.1,581,472.9,599.2,430.2z M598.8,517.7c4.6-3.6,10-6.9,9.7-7.8c-2.5-6.2-6.3-11.8-9.6-17.6c-3,5.7-6.6,11.2-8.7,17.2
		C589.7,510.9,594.8,514,598.8,517.7z"/>
	<path d="M419.3,555.1c-16.9,5-21.8,3.3-28.7-10.9c-2.8-5.7-6.3-8.4-12.7-7.8c-4.1,0.4-8.2,0.5-12.3,0c-12.7-1.4-21.2,1.1-26.4,15.3
		c-4,10.7-15.9,4-26.5,5.1c6.9-16.6,13-31.3,19.2-45.9c9.9-23.2,19.8-46.4,30-69.6c1-2.2,3.2-3.9,4.8-5.9c1.7,1.9,4.1,3.5,5,5.7
		c15.3,35.4,30.5,70.8,45.6,106.3C418.3,550,418.7,552.6,419.3,555.1z M367.2,519.2c4.4-4.1,10-7.7,9.5-9.2
		c-2.5-7.3-6.6-14-10.2-20.9c-3.4,7-7.4,13.9-9.8,21.3C356.3,511.7,362.3,515.2,367.2,519.2z"/>
	<path d="M261.8,693c0,17.1-0.5,34.2,0.2,51.3c0.4,10.7-6.3,9.1-12.8,9.3c-6.6,0.2-11.6,0.2-11.5-9.4c0.6-34.9,0.6-69.7,0-104.6
		c-0.2-9.6,4.9-9.6,11.5-9.4c6.5,0.2,13.1-1.2,12.7,9.4C261.3,657.4,261.8,675.2,261.8,693z"/>
	<path fill="#FFFFFF" d="M598.8,517.7"/>
	<path fill="#FFFFFF" d="M598.8,492.3"/>
</g>
</svg>
