<?xml version="1.0" encoding="utf-8"?>
<!-- Generator: Adobe Illustrator 19.1.0, SVG Export Plug-In . SVG Version: 6.00 Build 0)  -->
<svg version="1.1" id="Layer_1" xmlns="http://www.w3.org/2000/svg" xmlns:xlink="http://www.w3.org/1999/xlink" x="0px" y="0px"
	 viewBox="0 0 610.2 759.2" enable-background="new 0 0 610.2 759.2" xml:space="preserve">
<g>
	<path fill="#68929D" d="M568.2,714.8"/>
	<path fill="#68929D" d="M573.5,720"/>
	<path fill="#68929D" d="M610.2,758.3H201.5c-1.1-8.6-2.6-17.2-3.3-25.9c-1.8-22.8-4.9-45.5-5.6-68.4c-1.2-38.3-2.8-76.6,5-114.5
		c3.6-17.3,7.7-34.6,9.9-52.2c3.8-30.3,5.7-60.8,6.3-91.3c0.3-15.6,0.5-31.3,1.3-46.9c0.4-8.3,0.8-16.7,3.3-24.8
		c2.5-8.1,4.9-16.2,6.9-24.4c4.7-19.5,10.2-38.8,13.9-58.5c2.4-12.7,4.5-25.5,4.3-38.5c0-3.4-0.4-6.8-1.8-9.9
		c-2.3-5.1-4.1-5.6-8.1-1.6c-5.6,5.6-11.8,6.7-18.9,3c-1.9-1-4-1.8-6.1-1.3c-6.7,1.7-13.7,2.7-19.9,5.4
		c-16.4,7.1-33.9,8.9-51.2,11.4c-9.2,1.4-15.9,7.4-24,10.7c-3.3,1.3-1.4,4.4-2.6,6.4c-0.4,0.7-1.1,1.4-1.9,1.8
		c-2.5,1.7-4.5,4-6.4,6.4c-2.9,3.5-6.5,5.9-11,7.1c-9.6,2.5-19.1-0.1-28.5-1.1c-3.2-0.4-6.4-2.5-5.4-7.1c0.6-3.1-1.7-2.8-3.7-2.9
		c-5.5-0.3-9.6-2.7-12.4-7.7c-6-10.5-3.4-27.8,5.7-36.3c1.6-1.5,3.5-2.5,5.3-1.5c4.9,2.5,6.7-0.7,7.6-4.2c1.3-5,4.4-7.8,8.9-9.8
		c1.9-0.8,4.1-1.9,5.3-3.5c10.4-13.8,24.9-23.6,35.2-37.7c7.6-10.4,15.9-20.4,23.7-30.7c1.5-2,2.2-4.2,2.5-6.8
		c1.5-13,7-23.1,20.5-27.4c6.2-2,11.4-5.8,15.3-11.7c3.5-5.4,7-10.9,12.8-14.7c8-5.2,9.7-18.7,2.9-29.6c-2.1-3.3-1.5-6,0.6-8.8
		c6.2-8.3,21.9-10.5,31-2.4c2.4,2.1,2.9,5,1.8,7.3c-2.7,5.8-1.9,11.8-2,17.8c-0.1,7.2,1.1,8.2,8,7c9.5-1.7,19-2.4,28.6-2
		c4.3,0.2,8.8,1.5,11.8-3.2c0.9-1.4,2.9-1.2,4.5-1c4,0.5,8.1,0.6,11.7,3c2.1,1.4,4.1,1.6,5.9-0.9c8.4-11.9,19.5-20.9,30.7-30.1
		c4.9-4,9.8-5.9,15.9-6.1c3.5-0.1,5,1.3,5.2,4.4c1.1,16,1.6,32-4.2,47.3c-2.9,7.6-6,15-9,22.5c-0.3,0.4-0.7,0.9-0.9,1.3
		c-3.7,3.4-5.4,8.1-7.9,12.2c-0.7,1.1-0.9,3-0.4,4.3c2,5.3,4,10.6,5.8,16c4.7,14.3,9.2,28.6,12.2,43.4c1.5,7.3,1.7,14.8,3.5,22
		c3.4,13.3,2.3,0.6,5.9,40.3l-2.8,210.5l0.7,75.4c0,0-3.2,31.3,4.3,59c5.1,19,15.4,35.4,19.2,42.7c4.5,8.6,20.2,26.7,34.7,37.3
		c12.9,9.5,43.3,19.5,53,22.5l52.4,7.1c14.4,1.9,28.1,3.4,36.9,6.7l26.6,12.5l24.3,18.1l9.9,26.4L610.2,758.3z"/>
	<path fill="#68929D" d="M291.2,367.9"/>
	<path fill="#68929D" d="M294.6,315.5"/>
	<path fill="#68929D" d="M296.5,300.6"/>
	<path fill="#FDFEFE" d="M294.6,315.5"/>
	<path fill="#FDFEFE" d="M293.4,341.2"/>
	<path fill="#FDFEFE" d="M297.7,298.4"/>
</g>
<g>
	<path d="M0,634.8c0.9-1.2,2.2-2.2,2.6-3.5c5.5-17.7,21.9-30,40.3-30.2c14.4-0.1,28.8,0.1,43.2-0.1c4.7-0.1,6.5,1.4,6,6.1
		c-0.3,3.3-0.3,6.8,0,10.1c0.3,3.9-1.5,5-5,4.9c-13.7-0.1-27.4-0.1-41.1,0c-12.7,0-22.6,10-22.7,22.7c-0.1,12.7,9.7,23,22.2,23.3
		c7.3,0.1,14.6,0,21.9,0c24.9,0.1,44.7,19.1,45,43.2c0.3,23.9-19.3,44.3-43.7,44.8c-18.3,0.4-36.6,0-54.9,0.1c-3.5,0-5.3-1-5-4.9
		c0.3-3.7,0.3-7.5,0-11.2c-0.3-4.3,1.6-5.6,5.6-5.5c16.4,0.1,32.7,0.2,49.1,0c9.7-0.1,17.7-3.8,22.6-12.6
		c7.9-14.5-2.7-32.3-19.6-32.8c-6.8-0.2-13.5-0.1-20.3-0.1c-21,0-36.2-10.7-43.4-30.5c-0.5-1.4-1.8-2.5-2.7-3.7
		C0,648.3,0,641.6,0,634.8z"/>
	<path d="M364.9,756.4c-10.8-0.1-21.7-0.1-32.5-0.1c-2.7,0-4.9,0-4.9-3.8c0.1-19.7,0-39.4,0-60c2.9,0,5.5,0.2,8,0
		c3-0.2,4.4,1.2,4.4,3.9c-0.2,14.2-0.3,28.4-0.8,42.5c-0.1,4.3,1.4,5.8,5.6,5.6c6.7-0.3,13.4,0.1,20,0.2
		C364.9,748.6,364.9,752.5,364.9,756.4z"/>
	<path d="M149.9,588.3c0,20.1-0.1,40.2,0.1,60.3c0,4.3-0.9,6.2-5.5,5.8c-3.9-0.3-7.8-0.2-11.7,0c-4,0.2-5.1-1.4-5-5.3
		c0.1-39.8,0.1-79.7,0.1-119.5c0-8.8,0-8.8-8.9-8.8c-8.5,0-17.1-0.1-25.6,0c-3.3,0.1-5-1-4.7-4.6c0.2-3.5,0.4-7.1,0-10.7
		c-0.5-4.8,1-6.5,6.1-6.4c29.2,0.2,58.3,0.2,87.5,0c5.1,0,6.7,1.5,6.6,6.7c-0.3,15-0.1,15-14.9,15c-6,0-12.1,0.3-18.1-0.1
		c-4.5-0.3-5.9,1.4-5.9,5.8C150,547.1,149.9,567.7,149.9,588.3z"/>
	<path d="M257.8,701.9c-3.5,3.2-6.4,6-9.6,9c-8.2-9.1-17.3-12.6-27.9-5c-7.6,5.5-10.9,17.9-7.6,26.5c3.8,9.9,11.1,14.9,20.7,14.1
		c7.7-0.6,14.4-6.1,16.4-14.4c-4.8,0-9.3-0.3-13.7,0.1c-4.6,0.3-5.7-1.6-5.6-5.9c0-4.4,1.3-6,5.8-5.8c7.6,0.3,15.3,0.1,22.9-0.2
		c4.3-0.2,5.6,1.5,5.4,5.6c-0.8,13.6-6.9,24.1-19.3,29.9c-12.4,5.8-24.5,4.1-34.9-4.8c-10.8-9.3-14.4-21.4-10.6-35.2
		c6.3-23.3,29.3-33.2,49.1-21.3C252,696.4,254.6,699.2,257.8,701.9z"/>
	<path d="M275,653.8c-3.9,0-7.2,0-9.9,0c-1.9-4.5-3.1-8.9-5.3-12.7c-3.1-5.2-12.2-7.7-17.5-5.1c-1,0.5-1.8,2.5-1.9,3.9
		c-0.3,3.4-0.3,6.8,0,10.1c0.4,5-2.9,4.4-5.9,4.3c-2.9-0.1-6.7,1.4-6.6-4.1c0.2-18.7,0-37.3,0.2-56c0-1.3,2-3.6,3-3.6
		c9-0.1,18.1-0.4,27,0.5c16.6,1.7,22.3,23,13,34.2c-3.8,4.6-4.4,7.7-0.1,11.9C275.6,641.7,275.7,647.5,275,653.8z M240.4,613.4
		c0,11.7,0.5,12.1,12.1,10.2c0.3-0.1,0.7-0.1,1.1-0.2c6.1-1,9.1-4.4,9.1-10.3c0.1-5.5-3.5-9.7-8.8-10.7
		C241.3,600.1,240.4,600.8,240.4,613.4z"/>
	<path d="M312.2,693c0,3.8,0,7.1,0,11c-7.7,0-15.1,0-23.2,0c0,4-0.4,7.5,0.2,10.9c0.2,1.2,2.7,2.7,4.2,2.8c4.4,0.2,8.8-0.3,13.2-0.4
		c4.6-0.1,4.8,3,4.9,6.5c0.1,3.5-0.5,5.9-4.7,5.8c-5.6-0.1-11.3,0-17.1,0c-0.3,1-0.7,1.7-0.7,2.3c0.1,3.9-0.9,8.5,0.9,11.3
		c1.1,1.7,6.6,0.6,10.2,0.7c2.1,0.1,4.3,0,6.4,0c6.2,0,9.2,4.4,6.6,10.1c-0.5,1-2.3,2.1-3.6,2.1c-9.8,0.2-19.5,0.2-29.3-0.1
		c-1.3,0-3.6-2.3-3.6-3.6c-0.2-19.7-0.2-39.4-0.2-59.5C288.4,693,300.2,693,312.2,693z"/>
	<path d="M152.9,724.4c0-9.2,0.1-18.5-0.1-27.7c-0.1-3.2,1-4.5,4.2-4.4c9.4,0.1,18.8,0.1,28.3,0c3.8,0,4.4,2,4.2,5.1
		c-0.2,2.9,0.7,6.4-4.1,6.4c-5-0.1-10,0.1-14.9,0c-5.6-0.2-5.1,3.6-5.1,7.2c0,3.7-0.3,7.4,5.2,7.1c4.3-0.2,8.5,0.1,12.8-0.1
		c4.6-0.2,4.5,2.8,4.5,6c0.1,3.2-0.1,5.7-4.4,5.5c-4.6-0.2-9.2,0-13.9,0c-3.1-0.1-4.3,1.3-4.4,4.5c-0.4,10.9-0.5,10.9,10.6,10.9
		c2.5,0,5,0,7.5,0c6.3,0,8.9,3.5,6.6,9.4c-0.4,0.9-2.1,1.9-3.2,1.9c-10.1,0.1-20.3,0.1-30.4,0.1c-3,0-3.4-1.6-3.4-4.1
		C153,742.9,152.9,733.7,152.9,724.4z"/>
	<path d="M310.9,588.5c9.5,22.5,18.5,43.7,27.8,65.5c-3.9,0-7.3,0.4-10.5-0.2c-1.4-0.2-3.1-2.1-3.5-3.6c-1.6-5-4.2-7.9-9.9-6.9
		c-1.7,0.3-3.6,0.3-5.3,0c-6.7-1.1-10.9,1.1-12.7,7.9c-0.3,1.2-2.4,2.5-3.8,2.7c-2.9,0.4-6,0.1-9.8,0.1
		C292.4,632,301.5,610.6,310.9,588.5z M310.7,633.9c2.4-1.9,5.2-3.6,5-4c-1.3-3.2-3.3-6.1-5-9.1c-1.6,3-3.4,5.8-4.5,8.9
		C306,630.3,308.6,632,310.7,633.9z"/>
	<path d="M217.6,653.3c-8.8,2.6-11.3,1.7-14.9-5.7c-1.4-2.9-3.3-4.4-6.6-4c-2.1,0.2-4.3,0.2-6.4,0c-6.6-0.7-11,0.6-13.7,8
		c-2.1,5.6-8.3,2.1-13.8,2.7c3.6-8.6,6.7-16.2,10-23.8c5.1-12.1,10.3-24.1,15.5-36.1c0.5-1.2,1.7-2,2.5-3.1c0.9,1,2.1,1.8,2.6,2.9
		c8,18.4,15.8,36.8,23.7,55.2C217.1,650.6,217.2,652,217.6,653.3z M190.5,634.6c2.3-2.1,5.2-4,4.9-4.8c-1.3-3.8-3.4-7.3-5.3-10.8
		c-1.8,3.7-3.9,7.2-5.1,11C184.9,630.8,188,632.6,190.5,634.6z"/>
	<path d="M135.8,724.8c0,8.9-0.3,17.7,0.1,26.6c0.2,5.5-3.3,4.7-6.6,4.8c-3.4,0.1-6,0.1-6-4.9c0.3-18.1,0.3-36.2,0-54.3
		c-0.1-5,2.5-5,6-4.9c3.4,0.1,6.8-0.6,6.6,4.9C135.6,706.4,135.8,715.6,135.8,724.8z"/>
	<path fill="#FFFFFF" d="M310.7,633.9"/>
	<path fill="#FFFFFF" d="M310.7,620.7"/>
</g>
</svg>
